<svg xmlns="http://www.w3.org/2000/svg" xmlns:xlink="http://www.w3.org/1999/xlink" width="100%" viewBox="0 0 1000 334" version="1.1">

  <path d="M 15,167 a 50 50 0 0 1 320,0" style="fill: #000;; stroke: #fff; stroke-width: 10px;" />
  <path d="M 15,167 a 50 50 0 0 0 320,0" style="fill: #eacf22; stroke: #fff; stroke-width: 10px;" />

  <circle cx="174.5" cy="171" r="118" style="fill: #fff;" />
  <circle cx="174.5" cy="171" r="104" style="fill: none; stroke: #000; stroke-width: 10px;;" />


  <svg xmlns="http://www.w3.org/2000/svg" xmlns:xlink="http://www.w3.org/1999/xlink" xmlns:a="http://ns.adobe.com/AdobeSVGViewerExtensions/3.0/" version="1.1" width="70%" height="70%" x="-17.5%" y="18%" viewBox="-0.567 -0.567 256 256" overflow="visible" enable-background="new -0.567 -0.567 256 256" xml:space="preserve">
    <path style="fill: #000;" fill="#333" d="M126.265,55.796c-14.248,0-25.147,1.39-33.31,3.194V43.104h-10.31v18.797c-7.486,2.666-10.512,5.196-10.512,5.196    s4.312-0.361,10.512,0.131v97.745c-2.418,4.448-3.968,9.744-3.968,16.141c0,17.646,8.528,33.511,8.528,33.511    s-2.579-9.919-2.532-16.853c0.152-22.449,9.336-34.371,48.93-40.852c16.963-2.775,69.205-6.346,68.804-45.406    C202.168,87.927,187.54,55.796,126.265,55.796z M105.247,144.826c-3.504,2.151-7.999,4.748-12.292,8.21V68.734    c15.4,3.365,33.708,12.898,33.707,39.21C126.663,118.607,125.275,132.532,105.247,144.826z"/>
  </svg>


  <svg version="1.0" xmlns="http://www.w3.org/2000/svg"
   width="62.2%" viewBox="0 0 1865.000000 488.000000"
   preserveAspectRatio="xMidYMid meet" x="36.3%" y="3%">
  <g transform="translate(0.000000,488.000000) scale(0.100000,-0.100000)" fill="#fff" stroke="none">
  <path d="M1792 4428 c-9 -9 -12 -211 -12 -849 0 -748 2 -839 16 -853 13 -13
  42 -16 167 -16 84 0 159 5 167 10 13 8 15 115 18 845 1 570 -1 842 -8 855 -10
  19 -22 20 -173 20 -114 0 -167 -4 -175 -12z"/>
  <path d="M4555 4353 c-15 -49 -30 -99 -35 -113 -5 -14 -19 -59 -31 -100 -31
  -112 -58 -203 -164 -560 -53 -179 -99 -334 -102 -345 -3 -11 -19 -65 -35 -120
  -99 -332 -110 -375 -104 -391 4 -11 41 -14 185 -14 l180 0 11 38 c45 164 61
  217 68 224 5 5 136 7 293 6 l284 -3 29 -105 c15 -58 33 -117 38 -133 l11 -27
  181 2 181 3 -1 30 c-1 17 -13 68 -27 115 -14 47 -120 409 -236 805 -117 396
  -217 732 -223 748 l-10 27 -234 0 -233 0 -26 -87z m291 -390 c26 -108 129
  -502 149 -568 22 -75 15 -79 -157 -83 -157 -4 -203 1 -212 24 -3 8 1 40 10 72
  8 31 22 82 30 112 8 30 24 89 35 130 11 41 31 116 45 165 13 50 27 104 30 120
  10 51 13 55 38 55 20 0 27 -7 32 -27z"/>
  <path d="M8647 4434 c-4 -4 -7 -388 -7 -854 0 -645 3 -849 12 -858 8 -8 60
  -12 168 -12 108 0 160 4 168 12 24 24 13 799 -14 976 -9 58 7 53 40 -15 15
  -31 100 -176 188 -322 89 -146 206 -340 261 -431 55 -91 108 -177 119 -192
  l19 -28 148 0 c101 0 151 4 159 12 9 9 12 211 12 849 0 461 -3 844 -6 853 -5
  14 -30 16 -174 16 -144 0 -169 -2 -174 -16 -10 -27 -7 -714 4 -804 13 -100 30
  -216 37 -247 9 -42 -16 -24 -43 30 -25 49 -240 425 -339 592 -25 42 -45 78
  -45 79 0 2 -47 84 -104 182 l-104 179 -159 3 c-88 1 -162 -1 -166 -4z"/>
  <path d="M12122 4423 c-5 -10 -14 -36 -20 -58 -6 -22 -21 -71 -33 -110 -12
  -38 -25 -83 -29 -100 -5 -16 -21 -70 -35 -120 -15 -49 -37 -126 -50 -170 -13
  -44 -78 -264 -145 -490 -199 -670 -193 -646 -181 -658 4 -4 88 -6 187 -5 l179
  3 29 105 c15 58 33 117 38 133 l10 27 283 0 c214 0 285 -3 293 -12 6 -7 22
  -58 36 -113 42 -162 16 -145 225 -145 134 0 180 3 184 13 4 11 -11 70 -68 262
  -14 47 -36 122 -49 167 -154 529 -370 1257 -377 1271 -9 15 -31 17 -239 17
  -208 0 -230 -2 -238 -17z m273 -470 c6 -33 66 -271 95 -373 36 -128 60 -221
  60 -235 0 -8 -12 -20 -26 -25 -34 -13 -310 -13 -335 0 -28 16 -26 34 41 270 5
  19 21 78 35 130 14 52 29 109 34 125 5 17 15 56 21 88 11 54 13 57 40 57 26 0
  30 -4 35 -37z"/>
  <path d="M17977 4433 c-4 -3 -7 -390 -7 -859 0 -768 2 -852 16 -858 9 -3 82
  -6 164 -6 122 0 151 3 164 16 14 14 16 104 16 842 0 455 -3 837 -6 850 -6 22
  -9 22 -173 22 -92 0 -171 -3 -174 -7z"/>
  <path d="M247 4415 c-16 -15 -17 -84 -17 -845 0 -740 2 -830 16 -844 13 -13
  43 -16 169 -16 126 0 156 3 169 16 14 13 16 55 16 299 0 234 3 286 14 298 12
  11 59 16 213 20 133 3 216 10 252 21 197 56 328 199 366 399 19 98 19 148 1
  259 -33 201 -156 339 -346 389 -29 7 -188 13 -441 16 -360 5 -397 4 -412 -12z
  m762 -340 c19 -11 48 -37 65 -58 30 -37 31 -43 31 -132 0 -89 -1 -95 -31 -131
  -55 -69 -87 -79 -271 -82 -217 -5 -203 -20 -203 217 0 229 -16 213 210 209
  144 -3 169 -6 199 -23z"/>
  <path d="M2603 4419 c-10 -10 -13 -193 -13 -845 0 -744 2 -834 16 -848 13 -13
  42 -16 167 -16 84 0 159 5 167 10 13 8 15 57 18 325 l3 315 29 15 c44 23 241
  21 268 -2 11 -10 75 -150 142 -313 67 -162 129 -307 136 -323 l15 -27 177 2
  177 3 -2 27 c-1 15 -63 175 -137 356 -75 180 -136 339 -136 353 0 18 15 34 55
  63 126 90 185 215 185 391 0 98 -23 202 -62 277 -30 58 -123 150 -184 181
  -117 59 -123 60 -584 64 -337 4 -428 2 -437 -8z m824 -343 c39 -21 81 -69 89
  -102 3 -13 4 -55 2 -92 -4 -79 -27 -116 -91 -153 -40 -23 -50 -24 -238 -24
  -151 0 -200 3 -212 14 -15 12 -17 37 -17 182 0 218 -20 202 240 196 160 -3
  201 -7 227 -21z"/>
  <path d="M5622 4418 c-8 -8 -12 -57 -12 -153 0 -96 4 -145 12 -153 8 -8 61
  -12 173 -12 129 0 165 -3 183 -16 l22 -15 0 -664 c0 -590 2 -665 16 -679 13
  -13 42 -16 167 -16 84 0 158 4 165 8 10 7 13 144 15 676 l2 668 24 19 c21 17
  41 19 185 19 113 0 166 4 174 12 8 8 12 57 12 153 0 96 -4 145 -12 153 -17 17
  -1109 17 -1126 0z"/>
  <path d="M7126 4414 c-14 -14 -16 -104 -16 -844 0 -740 2 -830 16 -844 14 -14
  78 -16 554 -16 476 0 540 2 554 16 13 12 16 41 16 148 0 116 -2 135 -18 149
  -17 15 -57 17 -369 17 -326 0 -351 1 -366 18 -14 16 -17 43 -17 168 0 82 5
  156 10 164 8 13 58 16 314 20 167 3 308 9 313 13 14 14 16 255 3 288 l-12 29
  -292 0 c-248 0 -295 2 -314 16 -21 14 -22 22 -22 164 0 142 1 150 22 164 19
  14 72 16 370 16 302 0 349 2 362 16 13 12 16 41 16 145 0 72 -5 139 -10 150
  -10 18 -27 19 -555 19 -481 0 -545 -2 -559 -16z"/>
  <path d="M10383 4419 c-20 -20 -19 -1682 1 -1698 9 -8 64 -11 172 -9 158 3
  158 3 171 28 9 18 13 99 13 302 0 254 1 278 18 286 9 5 105 12 212 15 154 4
  208 10 256 25 241 76 364 255 364 526 0 276 -107 437 -340 511 -47 15 -110 18
  -455 22 -318 4 -403 2 -412 -8z m768 -347 c20 -12 49 -41 65 -63 25 -36 28
  -50 28 -122 1 -75 -2 -86 -29 -127 -49 -72 -104 -89 -285 -90 -204 0 -190 -16
  -190 221 0 187 0 190 23 199 12 5 96 8 187 7 152 -2 168 -4 201 -25z"/>
  <path d="M13402 4422 c-18 -12 -18 -1692 0 -1704 7 -4 81 -8 165 -8 125 0 154
  3 167 16 14 13 16 56 16 317 0 166 4 307 8 313 17 26 56 34 160 34 90 0 114
  -3 131 -17 13 -11 74 -144 154 -338 l133 -320 177 -3 c153 -2 178 0 183 13 6
  13 -45 156 -92 260 -7 17 -23 55 -34 85 -12 30 -28 69 -35 85 -42 94 -115 282
  -115 297 0 9 25 36 57 60 77 59 138 143 163 229 18 58 20 90 17 182 -4 124
  -15 174 -53 250 -33 65 -125 157 -190 190 -117 59 -124 60 -579 64 -231 2
  -426 0 -433 -5z m817 -347 c19 -11 48 -37 65 -58 27 -34 30 -45 31 -111 0 -65
  -3 -77 -29 -115 -55 -78 -82 -86 -309 -86 -185 0 -200 1 -213 19 -11 15 -14
  58 -14 182 0 212 -19 196 240 192 174 -3 199 -5 229 -23z"/>
  <path d="M14939 4403 c-12 -32 -8 -277 4 -290 5 -4 87 -10 182 -13 124 -4 178
  -9 187 -18 10 -10 14 -149 16 -679 2 -467 6 -670 13 -680 15 -18 319 -19 337
  -1 9 9 12 170 12 665 0 461 3 659 11 677 15 33 31 36 204 36 83 0 156 4 163 9
  19 11 17 301 -1 313 -7 4 -261 8 -565 8 l-552 0 -11 -27z"/>
  <path d="M16452 4418 c-17 -17 -17 -1679 0 -1696 17 -17 1089 -17 1106 0 17
  17 17 289 0 306 -9 9 -103 12 -363 12 -288 0 -355 3 -371 14 -17 13 -19 28
  -19 171 0 143 2 158 19 171 16 11 75 14 307 14 248 0 290 2 303 16 13 12 16
  41 16 153 0 93 -4 141 -12 149 -9 9 -88 12 -295 12 -190 0 -290 4 -307 11 -19
  9 -27 22 -32 55 -10 70 -1 261 14 276 10 10 95 14 369 16 238 2 361 6 370 14
  18 14 19 288 1 306 -17 17 -1089 17 -1106 0z"/>
  <path d="M8373 2225 c-27 -19 -47 -103 -33 -140 13 -33 49 -47 94 -34 47 13
  66 43 66 102 0 70 -12 87 -63 87 -23 0 -52 -7 -64 -15z"/>
  <path d="M8736 2217 c-27 -27 -40 -95 -26 -132 5 -14 21 -30 34 -35 33 -12 91
  5 111 33 18 26 20 128 3 145 -21 21 -96 15 -122 -11z"/>
  <path d="M3155 2164 c-3 -20 -19 -124 -35 -231 -15 -107 -30 -196 -33 -199 -2
  -3 -24 8 -48 24 -54 36 -93 49 -167 58 -126 14 -250 -33 -348 -131 -106 -105
  -166 -252 -186 -456 -19 -197 12 -335 96 -421 57 -59 98 -73 211 -73 86 0 107
  3 150 25 50 24 137 103 188 170 l26 35 1 -107 0 -108 65 0 65 0 0 38 c2 182
  23 480 45 617 14 88 37 230 50 315 14 85 34 217 45 294 11 76 23 149 26 162 6
  24 5 24 -69 24 l-75 0 -7 -36z m-252 -498 c54 -20 98 -52 130 -96 l27 -38 -21
  -124 c-40 -238 -75 -326 -176 -438 -80 -88 -151 -120 -223 -100 -52 14 -106
  78 -127 150 -20 69 -20 238 0 336 31 144 108 267 192 305 48 22 143 24 198 5z"/>
  <path d="M13390 2196 c0 -5 -52 -351 -90 -596 -16 -102 -42 -275 -59 -385 -17
  -110 -35 -224 -41 -254 -19 -103 -17 -112 46 -154 32 -20 80 -44 108 -53 70
  -22 213 -29 289 -14 245 47 405 266 439 598 22 225 -37 384 -165 446 -126 61
  -299 33 -412 -65 -20 -18 -38 -29 -41 -26 -3 3 8 88 24 189 17 101 34 206 37
  233 4 28 9 58 12 68 4 15 -4 17 -71 17 -42 0 -76 -2 -76 -4z m421 -539 c113
  -60 147 -288 78 -513 -51 -165 -156 -264 -297 -281 -62 -7 -177 25 -220 62
  -28 24 -29 27 -20 72 5 27 22 140 39 252 19 128 37 217 49 240 26 51 127 146
  180 170 62 28 135 27 191 -2z"/>
  <path d="M248 2028 c-17 -111 -41 -263 -112 -723 -39 -249 -72 -470 -80 -524
  l-5 -33 262 5 c224 4 273 7 339 25 218 59 339 180 368 367 24 150 -31 278
  -142 336 -21 11 -38 23 -38 27 0 5 17 16 38 25 64 28 119 83 154 155 30 60 33
  75 33 157 0 146 -46 212 -184 267 -52 20 -75 22 -336 26 l-280 4 -17 -114z
  m547 -53 c79 -40 109 -93 102 -178 -9 -102 -69 -177 -174 -218 -48 -18 -85
  -23 -216 -27 -87 -2 -162 -1 -167 4 -8 9 -5 31 36 290 13 83 24 154 24 158 0
  4 76 6 168 4 164 -3 170 -4 227 -33z m-93 -584 c69 -27 134 -93 144 -146 3
  -20 4 -68 2 -105 -6 -83 -38 -143 -97 -184 -76 -53 -110 -60 -323 -64 -190 -4
  -198 -3 -198 16 0 10 11 84 25 163 13 79 29 185 35 234 6 50 13 96 16 104 3
  10 37 12 172 9 142 -4 175 -8 224 -27z"/>
  <path d="M6455 2093 c3 -27 14 -203 25 -393 11 -190 27 -433 35 -540 7 -107
  17 -243 20 -302 l7 -108 113 0 112 0 197 528 c209 561 225 602 236 602 7 0 24
  -210 45 -570 8 -140 20 -316 25 -390 5 -74 10 -143 10 -152 0 -16 12 -18 114
  -18 99 0 115 2 121 17 9 25 208 557 322 863 52 140 116 312 143 383 l48 127
  -78 0 -78 0 -21 -52 c-19 -51 -63 -165 -277 -736 -52 -139 -104 -284 -116
  -322 -12 -39 -25 -70 -29 -70 -4 0 -10 64 -13 143 -9 176 -33 538 -46 672 -5
  55 -12 160 -16 233 l-7 133 -109 -3 -110 -3 -58 -155 c-102 -272 -326 -872
  -356 -955 l-29 -80 -16 240 c-23 323 -62 916 -63 938 0 15 -11 17 -78 17 l-79
  0 6 -47z"/>
  <path d="M10081 1983 c-12 -60 -28 -126 -34 -148 l-12 -40 -85 -15 c-82 -15
  -85 -16 -91 -45 -14 -66 -16 -65 64 -65 39 0 77 -4 83 -8 7 -5 3 -53 -12 -157
  -12 -82 -34 -231 -49 -330 -37 -250 -29 -328 39 -396 33 -33 87 -49 167 -49
  65 0 164 21 182 39 9 9 2 77 -12 99 -6 10 -22 10 -80 0 -67 -11 -75 -11 -109
  7 -70 38 -75 81 -37 330 54 360 69 450 79 457 6 4 77 8 159 8 146 0 147 0 147
  23 0 12 3 39 6 60 l7 37 -146 0 c-85 0 -148 4 -152 10 -3 5 3 70 15 144 11 74
  20 137 20 140 0 3 -29 6 -64 6 l-63 0 -22 -107z"/>
  <path d="M1635 1807 c-219 -56 -365 -275 -395 -589 -29 -304 86 -488 305 -488
  123 0 222 50 308 156 26 32 52 60 57 62 6 2 10 -37 10 -97 l0 -101 63 0 62 0
  0 32 c0 194 20 440 47 588 16 91 40 222 53 293 l22 127 -57 0 -57 0 -12 -40
  c-6 -22 -14 -40 -17 -40 -3 0 -24 16 -47 35 -23 20 -64 42 -92 51 -70 21 -190
  26 -250 11z m216 -155 c53 -23 116 -81 124 -115 11 -42 -62 -335 -106 -425
  -55 -115 -150 -212 -231 -237 -54 -17 -59 -17 -103 -1 -59 23 -97 74 -120 161
  -33 122 -6 356 56 477 29 57 97 128 144 150 51 24 168 19 236 -10z"/>
  <path d="M3890 1814 c-162 -31 -296 -140 -371 -300 -50 -106 -69 -184 -76
  -324 -11 -214 49 -362 172 -425 56 -29 64 -30 184 -30 136 1 209 15 312 61
  l56 26 -15 51 c-8 29 -16 53 -17 55 -2 2 -30 -6 -64 -18 -76 -25 -191 -50
  -235 -50 -18 0 -56 7 -84 15 -103 31 -152 121 -152 278 l0 77 133 -6 c357 -17
  547 95 547 321 0 113 -69 215 -167 250 -49 17 -177 28 -223 19z m153 -158 c56
  -28 82 -70 81 -136 0 -71 -20 -102 -92 -137 -49 -24 -72 -28 -165 -32 -59 -2
  -137 0 -173 4 l-65 7 7 31 c12 55 63 153 104 200 73 82 205 110 303 63z"/>
  <path d="M4920 1805 c-64 -18 -128 -54 -180 -101 -20 -18 -40 -31 -44 -27 -3
  3 -6 31 -6 60 l0 54 -57 -3 -58 -3 -17 -110 c-16 -102 -52 -337 -112 -735 -14
  -91 -26 -171 -26 -177 0 -9 21 -13 70 -13 64 0 70 2 75 23 2 12 19 114 35 227
  80 530 70 491 151 572 96 96 238 133 329 86 25 -13 53 -37 64 -56 39 -69 33
  -152 -49 -667 -14 -88 -25 -166 -25 -173 0 -10 18 -12 73 -10 l72 3 27 175
  c14 96 36 238 49 315 14 88 23 187 23 265 1 112 -1 130 -22 173 -28 55 -78
  100 -131 116 -67 20 -181 22 -241 6z"/>
  <path d="M9600 1804 c-66 -18 -130 -54 -186 -106 l-43 -40 -3 64 -3 63 -57 3
  c-68 4 -58 26 -93 -213 -28 -193 -86 -574 -109 -715 -9 -52 -16 -98 -16 -102
  0 -5 33 -8 73 -8 l73 0 22 153 c50 344 82 552 88 570 11 35 87 108 139 135 38
  19 71 27 140 31 l90 6 21 80 c12 44 19 83 17 88 -7 12 -94 7 -153 -9z"/>
  <path d="M10940 1803 c-159 -44 -273 -152 -347 -333 -71 -172 -80 -392 -22
  -545 31 -83 106 -157 181 -179 108 -31 287 -15 425 40 37 14 72 30 77 34 7 7
  -20 110 -30 110 -2 0 -21 -7 -41 -15 -59 -23 -203 -55 -249 -55 -99 0 -185 51
  -216 129 -15 40 -29 159 -22 200 l6 37 171 0 c146 0 184 4 252 22 167 47 246
  137 249 287 1 59 -4 79 -29 130 -33 66 -91 117 -153 135 -69 20 -182 22 -252
  3z m165 -134 c79 -22 134 -110 114 -183 -24 -89 -96 -127 -251 -134 -58 -2
  -136 -1 -172 3 -76 8 -79 12 -46 96 71 179 203 260 355 218z"/>
  <path d="M12000 1804 c-61 -17 -131 -58 -175 -104 l-30 -32 -5 59 -5 58 -57 3
  c-67 3 -55 33 -98 -253 -62 -419 -89 -593 -104 -680 -9 -49 -16 -93 -16 -97 0
  -5 33 -8 73 -8 l74 0 16 113 c60 404 89 577 102 613 20 53 128 157 190 184 88
  38 187 20 224 -41 32 -53 35 -120 12 -274 -45 -303 -79 -522 -86 -557 l-7 -38
  74 0 75 0 23 153 c54 362 90 568 101 589 25 47 125 141 174 164 99 47 208 24
  244 -51 31 -65 27 -112 -59 -665 -10 -69 -22 -140 -25 -157 l-6 -33 76 0 c41
  0 75 3 75 8 0 4 11 79 25 167 13 88 38 255 55 370 42 280 37 356 -32 444 -28
  37 -70 58 -137 72 -129 25 -257 -13 -362 -109 l-56 -51 -18 40 c-49 107 -185
  153 -335 113z"/>
  <path d="M14680 1802 c-158 -41 -272 -151 -347 -332 -71 -172 -80 -392 -22
  -545 31 -83 106 -157 181 -179 108 -31 287 -15 425 40 37 14 72 30 77 34 7 7
  -20 110 -30 110 -2 0 -21 -7 -41 -15 -59 -23 -203 -55 -249 -55 -97 0 -170 41
  -209 119 -21 42 -37 160 -29 212 l6 39 137 -6 c214 -10 376 31 458 115 65 66
  94 168 74 262 -37 171 -220 256 -431 201z m165 -133 c79 -22 134 -110 114
  -183 -24 -89 -96 -127 -251 -134 -58 -2 -136 -1 -172 3 -76 8 -79 12 -46 96
  71 178 203 260 355 218z"/>
  <path d="M15761 1804 c-60 -16 -154 -69 -190 -108 -14 -14 -28 -26 -33 -26 -4
  0 -8 27 -8 60 l0 60 -59 0 c-57 0 -60 -1 -65 -27 -6 -27 -41 -261 -91 -603
  -14 -91 -32 -205 -40 -255 -8 -49 -18 -105 -21 -122 l-5 -33 73 0 74 0 16 113
  c70 469 88 585 93 605 9 36 84 111 140 140 40 20 68 27 141 30 l91 4 21 82
  c11 44 18 84 15 89 -7 12 -94 7 -152 -9z"/>
  <path d="M16288 1801 c-210 -54 -344 -262 -379 -585 -26 -231 48 -413 187
  -466 147 -55 314 -3 423 131 24 30 48 56 52 57 5 2 9 -42 9 -97 0 -135 -22
  -196 -99 -271 -43 -42 -71 -60 -121 -77 -123 -41 -240 -38 -358 10 l-61 24
  -26 -65 c-17 -41 -23 -68 -17 -74 26 -26 132 -51 238 -55 184 -9 331 39 445
  144 42 40 69 76 93 127 51 106 59 166 54 398 -5 209 0 262 46 473 8 39 24 118
  36 177 11 59 23 114 26 122 5 13 -4 16 -55 16 l-60 0 -11 -40 c-12 -44 -20
  -49 -41 -24 -27 33 -92 66 -157 80 -87 18 -142 17 -224 -5z m211 -141 c45 -14
  136 -88 146 -119 3 -10 -11 -92 -30 -182 -45 -209 -87 -301 -184 -399 -105
  -107 -196 -125 -279 -55 -130 110 -105 519 42 692 73 85 169 105 305 63z"/>
  <path d="M8136 1768 c-3 -13 -13 -72 -21 -133 -9 -60 -30 -195 -47 -300 -41
  -261 -46 -352 -22 -423 26 -79 91 -145 163 -166 135 -40 304 -4 407 86 l37 33
  -5 -58 -5 -57 68 0 68 0 6 33 c3 17 14 93 26 167 11 74 33 218 49 320 16 102
  38 246 49 320 12 74 23 150 26 168 l6 32 -74 0 -75 0 -11 -82 c-7 -46 -23
  -150 -36 -233 -13 -82 -33 -215 -45 -294 -24 -165 -35 -186 -130 -250 -151
  -100 -308 -88 -368 29 -20 39 -23 56 -19 125 4 74 47 373 82 574 24 138 27
  131 -55 131 -64 0 -70 -2 -74 -22z"/>
  <path d="M5626 1341 c-3 -4 -8 -34 -12 -65 l-7 -56 226 0 c253 0 230 -8 243
  83 l6 47 -225 0 c-124 0 -228 -4 -231 -9z"/>
  </g>
  </svg>



</svg>
