<svg xmlns="http://www.w3.org/2000/svg" xmlns:xlink="http://www.w3.org/1999/xlink" width="100%" height="100%" viewBox="0 0 100 100" version="1.1">
  <svg xmlns="http://www.w3.org/2000/svg" xmlns:xlink="http://www.w3.org/1999/xlink" xmlns:a="http://ns.adobe.com/AdobeSVGViewerExtensions/3.0/" version="1.1" width="150%" height="150%" x="-25%" y="-24%" viewBox="-0.567 -0.567 256 256" overflow="visible" enable-background="new -0.567 -0.567 256 256" xml:space="preserve">
   <path style="fill: #333;" fill="#333" d="M126.265,55.796c-14.248,0-25.147,1.39-33.31,3.194V43.104h-10.31v18.797c-7.486,2.666-10.512,5.196-10.512,5.196    s4.312-0.361,10.512,0.131v97.745c-2.418,4.448-3.968,9.744-3.968,16.141c0,17.646,8.528,33.511,8.528,33.511    s-2.579-9.919-2.532-16.853c0.152-22.449,9.336-34.371,48.93-40.852c16.963-2.775,69.205-6.346,68.804-45.406    C202.168,87.927,187.54,55.796,126.265,55.796z M105.247,144.826c-3.504,2.151-7.999,4.748-12.292,8.21V68.734    c15.4,3.365,33.708,12.898,33.707,39.21C126.663,118.607,125.275,132.532,105.247,144.826z"/>
  </svg>


</svg>
